<?xml version="1.0" encoding="UTF-8"?>
<svg id="Layer_2" data-name="Layer 2" xmlns="http://www.w3.org/2000/svg" viewBox="0 0 286.58 560.02">
  <defs>
    <style>
      .cls-1, .cls-2 {
        fill: none;
      }

      .cls-1, .cls-2, .cls-3 {
        stroke: #000;
        stroke-miterlimit: 10;
      }

      .cls-1, .cls-3 {
        stroke-width: 4px;
      }

      .cls-4 {
        stroke-width: 0px;
      }

      .cls-2 {
        stroke-width: 2px;
      }

      .cls-3 {
        fill: #fff;
      }
    </style>
  </defs>
  <g id="Layer_2-2" data-name="Layer 2">
    <path class="cls-3" d="m108.41,29.14c-.6.07-1.2.15-1.79.22-22.07,2.8-45.13,5.39-65.54,14.85-7.66,3.55-17.51,6.23-22.37,13.57-2.2,3.33-3.94,5.47-3.46,9.69.22,1.93.76,3.02,1.78,4.59s2.93,2.66,3.46,4.31c.72,2.26-3.98,7.2-5.43,9.45-2.9,4.53-5.8,9.07-8.71,13.6-.88,1.38-4.36,5.12-4.36,6.82v405.89s128.18,103.25,282.46,0c0-4.9,0-9.8,0-14.7,0-13.08,0-26.16,0-39.24,0-18.84,0-37.68,0-56.51,0-22.17,0-44.34,0-66.51,0-23.08,0-46.16,0-69.23,0-21.56,0-43.12,0-64.68,0-17.62,0-35.24,0-52.85,0-11.25,0-22.5,0-33.75,0-3.6.66-6.79-1.12-10.03-2.45-4.44-5.94-8.57-8.83-12.75-2.94-4.24-6.43-8.1-8.99-12.61-1.88-3.31-1.18-2.21,1.08-4.74,2.41-2.69,4.63-4.89,4.55-8.57-.14-6.18-4.04-8.57-8.66-12.06-11.07-8.37-25.13-12.96-38.25-16.89-2.61-.78-5.23-1.52-7.85-2.24-19.31-5.24-39.23-7.75-59.24-8.2"/>
    <path class="cls-1" d="m283.34,104.62s-124.68,75.21-281.34,1.62"/>
    <path class="cls-1" d="m22.18,510.94s126.99,72.4,251.6-7.12"/>
    <path class="cls-1" d="m266.59,74.53s-106.21,63.23-247.31,0"/>
    <path class="cls-1" d="m172.7,59.27c13.39,2.11,24.6,7.03,24.6,11.98,0,6.55-17.25,13.05-35.6,13.05s-37.58-6.5-37.58-13.05c0-3.07,3.7-6.13,9.52-8.51"/>
    <path class="cls-3" d="m104.23,17.98c.45,3.94,3.2,7.54,5.24,11.16,5.06,8.96,10.11,17.91,15.17,26.87,0,0,30.92,35.29,50.67,3.4l-21.79-39.4s-2.86-6.55-10.22-11.08c-6.58-4.04-14.6-7.59-22.51-6.82-6.07.6-13.09,5.14-15.7,10.73-.83,1.79-1.05,3.49-.86,5.14Z"/>
    <path class="cls-1" d="m113.76,18.62s3.31,8.31,10.36,10.88,19.31,1.19,21.49-3.76-7.32-10.29-7.32-10.29c0,0-9.07-4.3-21.56-1.98,0,0-4.55.2-2.97,5.14Z"/>
    <path class="cls-1" d="m161.82,54.42l-10.48-15.33s-1.98-3.76-7.42-4.05-11.87,0-11.87,0c0,0-6.82.69-3.07,8.31s13.65,16.12,14.74,16.71,7.71,2.18,13.45,1.58,4.65-7.22,4.65-7.22Z"/>
    <circle class="cls-2" cx="152.38" cy="55.59" r="3.21"/>
    <ellipse class="cls-1" cx="151.26" cy="54.94" rx="7.22" ry="6.16"/>
    <path class="cls-2" d="m113.42,36.14s-52.08-.05-83.73,21.58c0,0-17.41,12.92,29.28,24.79,25.83,6.57,53.42,7.25,79.94,7.56,23.46.28,47.26,1.8,70.49-2.35,15.34-2.74,38.54-9.4,46.05-24.59,6.09-12.31-40.91-22.28-47.84-23.95-14.71-3.53-30.1-2.77-45.17-3.05"/>
    <path class="cls-4" d="m104.31,273.07c-13.2-.34-25.74,8.42-29.25,21.27-3.7,13.55,1.95,29.26,12.24,38.51,4.96,4.46,11.22,7.67,18,7.75,7.09.08,13.46-3.42,18.66-7.97,2.56-2.24,4.86-4.77,7.03-7.4,2.35-2.85,4.61-5.82,6.11-9.21,2.82-6.38,3.43-13.56,1.73-20.33s-5.55-12.38-11.1-16.36-11.86-5.64-18.31-6.17c-1.55-.13-3.11-.16-4.67-.11-3.85.11-3.87,6.11,0,6,10.88-.31,22.39,3.79,27.02,14.38,2.22,5.08,2.62,10.94,1.24,16.26-1.51,5.83-5.39,10.59-9.43,14.93s-8.5,8.11-14.14,9.51-10.65-.27-15.2-3.38c-9.51-6.49-15.16-19.01-14.21-30.41.52-6.21,3.3-11.58,7.97-15.59s10.42-5.83,16.3-5.67c3.86.1,3.86-5.9,0-6h0Z"/>
    <path class="cls-4" d="m154.66,257.9c-2.52,18.82-4.28,37.74-5.26,56.7-.24,4.76-.45,9.52-.59,14.29-.06,2.31.45,4.67,2.61,5.92,1.88,1.08,4.38.94,6.48.94,9.6,0,19.21-2.17,28.65-3.73,10.6-1.75,21.2-3.51,31.81-5.26,1.6-.26,2.49-2.25,2.1-3.69-.47-1.7-2.09-2.36-3.69-2.1-8.97,1.48-17.94,2.97-26.91,4.45s-17.66,3.33-26.56,4.09c-2.28.19-4.57.29-6.86.22-.51-.01-1.99-.02-2.02-.13,0-.01.52.53.42.55-.03,0-.02-1.04-.01-1.26.13-4.52.32-9.04.55-13.55.45-9.03,1.09-18.05,1.89-27.06.91-10.15,2.05-20.28,3.4-30.38.22-1.61-1.53-3-3-3-1.8,0-2.78,1.39-3,3h0Z"/>
    <path class="cls-4" d="m92.08,240.77c-2.2-.39-4.17-1.21-6.46-.95-2.73.31-4.95,1.37-6.47,3.73-2.19,3.42-2.36,8.36-1.04,12.11,1.54,4.39,5.34,8.88,10.47,7.95,4.27-.77,8.04-4.47,9.42-8.49,1.79-5.21-1.38-9.8-4.6-13.59-1.02-1.2-3.21-1.13-4.24,0-1.17,1.28-1.09,2.96,0,4.24.26.3.51.6.76.9.13.15.25.31.38.46.04.05.35.45.08.1.48.63.92,1.28,1.31,1.97.05.09.54,1.09.33.59.15.35.27.72.36,1.09.05.19.09.37.12.56-.03-.14-.02-.54,0,.07,0,.18.01.35.01.52,0,.08-.04.8,0,.38.03-.34-.1.47-.14.61-.04.16-.4,1.06-.14.5-.15.32-.31.62-.49.92-.09.15-.19.29-.28.44-.28.46.13-.11-.09.13-.48.53-.97,1.03-1.51,1.5-.26.22.03-.03.08-.06-.15.1-.29.2-.44.3-.37.24-.76.46-1.15.66.01,0-.46.2-.22.1.28-.11-.33.1-.38.12-.06.02-.69.18-.36.11s-.3,0-.37,0c-.51,0,.36.07-.11-.02s.32.19-.09-.02c-.13-.07-.25-.14-.38-.22-.68-.4.26.29-.32-.24-.26-.24-.51-.48-.75-.74-.12-.13-.23-.26-.34-.4.03.04.26.37.07.09-.41-.63-.78-1.25-1.11-1.92.28.55-.13-.36-.17-.5-.11-.33-.2-.67-.28-1.01-.07-.3-.12-.6-.18-.91-.09-.46.02.48,0,.01,0-.22-.04-.44-.05-.66-.01-.35-.02-.7,0-1.06,0-.14.11-1.2.02-.52.1-.74.29-1.48.54-2.19.14-.39.54-.92.76-1.25.16-.23,0-.03-.09.04.05-.03.76-.39.35-.23.19-.07.4-.11.6-.17l.31-.06c-.23.02-.24.02-.02,0,.46-.06.92-.06,1.38-.05.15,0,.55.13.03,0,.22.05.44.09.65.15.88.22,1.74.5,2.64.66,1.54.27,3.31-.42,3.69-2.1.33-1.46-.44-3.4-2.1-3.69h0Z"/>
    <path class="cls-4" d="m126.16,242.89c-4.05-2.05-8.98-.11-11.06,3.8s-2.11,8.97.37,12.58,6.64,5.56,10.82,4.34c2.07-.61,3.82-1.9,5.03-3.68,1.28-1.9,1.44-4.3,1.53-6.52.09-2.34-.33-4.64-1.71-6.58s-3.37-3.4-5.69-4.23c-1.48-.53-3.35.6-3.69,2.1-.38,1.68.51,3.12,2.1,3.69.13.05.29.09.42.16-.61-.32-.23-.1-.11-.03.26.15.52.28.77.45.08.05.29.17.37.25-.35-.43-.23-.19-.08-.05.27.25.53.51.79.78.14.15.37.26-.05-.09.09.07.2.28.25.36.04.05.42.77.43.77-.03,0-.24-.7-.05-.11.05.14.09.28.14.42s.07.29.11.43c.14.53.02-.35.01.07-.01.77.01,1.54-.03,2.31-.02.42-.05.83-.09,1.25.01-.13.11-.55-.01.02-.05.22-.1.45-.16.67-.02.08-.21.62-.08.29.12-.3-.07.12-.1.19-.07.13-.16.24-.23.37-.19.35.36-.37.07-.09-.21.2-.41.41-.62.61-.3.28.44-.26.08-.08-.16.08-.31.2-.47.28-.08.04-.29.18-.39.2.56-.09.3-.12.1-.06-.17.05-.7.29-.85.22.15.08.56-.04.14-.03-.15,0-.29.02-.44.01-.01,0-.4.02-.44-.02.38.06.46.07.24.03-.11-.02-.22-.04-.33-.07-.07-.02-.87-.2-.86-.26,0-.03.66.34.1.03-.13-.07-.27-.14-.4-.21-.16-.09-.94-.57-.33-.17-.28-.18-.53-.45-.75-.69-.1-.11-.2-.23-.31-.34-.29-.3.27.42.05.07-.16-.26-.34-.51-.49-.79-.04-.08-.3-.56-.13-.23s-.06-.16-.09-.24c-.13-.37-.23-.74-.31-1.12-.04-.17-.07-.34-.09-.51.09.61.03.15.02.02,0-.35-.03-.69-.02-1.04,0-.17.02-.35.03-.52.04-.81-.1.37.01-.11.09-.37.15-.74.25-1.1.05-.15.1-.31.15-.46.22-.73-.28.5.06-.18.16-.32.33-.64.53-.94.06-.09.38-.46.12-.18-.28.31.18-.17.24-.23.06-.06.25-.28.35-.32-.61.25-.1.09.08,0,.07-.04.35-.15.37-.19-.1.18-.54.2,0,.04.14-.04.28-.08.43-.11.61-.14.07.08-.03-.02.04.04.99.03,1.09,0-.1.03-.68-.15-.18,0,.57.17-.54-.3.02-.01,1.4.71,3.32.42,4.1-1.08.72-1.37.42-3.35-1.08-4.1h0Z"/>
  </g>
</svg>